<?xml version="1.0" encoding="UTF-8"?><svg xmlns="http://www.w3.org/2000/svg" viewBox="0 0 2000 2000"><defs><style>.cls-1{fill:#0e7789;}.cls-2{fill:#084349;}</style></defs><g id="Fond"><circle class="cls-1" cx="1006.16" cy="1000" r="678.52"/></g><g id="Logo_final"><path class="cls-2" d="M970.25,612.5v771.84c-24.2-2.18-47.76-6.58-70.46-13.01-24.57-6.94-48.13-16.25-70.45-27.66-16.27-8.32-31.88-17.75-46.72-28.21-8.15-5.74-16.07-11.78-23.74-18.12-19.06-15.74-36.59-33.27-52.33-52.33-6.34-7.67-12.38-15.59-18.12-23.74-10.46-14.84-19.89-30.45-28.21-46.72-11.41-22.32-20.72-45.89-27.66-70.45-6.43-22.7-10.83-46.25-13.01-70.45h70.82c2.7,24.43,8.17,48.02,16.1,70.45,8.87,25.08,20.8,48.72,35.36,70.45,5.33,7.98,11.02,15.7,17.05,23.15,14.06,17.38,29.93,33.25,47.31,47.31,7.45,6.03,15.17,11.73,23.15,17.06,21.73,14.56,45.37,26.49,70.45,35.35V625.51c22.7-6.43,46.26-10.83,70.46-13.01Z"/><path class="cls-2" d="M1391.39,963.19h-280.24v-337.68c-22.7-6.43-46.26-10.83-70.45-13.01v771.84c24.19-2.18,47.75-6.58,70.45-13.01,24.57-6.94,48.14-16.25,70.46-27.66,16.27-8.32,31.88-17.76,46.71-28.21,8.15-5.74,16.07-11.78,23.74-18.12,19.06-15.74,36.59-33.27,52.33-52.33,6.34-7.67,12.39-15.59,18.13-23.75,10.45-14.84,19.88-30.44,28.2-46.71,11.41-22.32,20.72-45.89,27.66-70.45,6.43-22.7,10.83-46.25,13.01-70.45,1.05-11.6,1.58-23.35,1.58-35.23s-.53-23.63-1.58-35.23Zm-86.91,140.91c-8.87,25.08-20.8,48.72-35.36,70.45-5.33,7.99-11.03,15.72-17.06,23.17-14.07,17.38-29.93,33.24-47.31,47.29-7.44,6.03-15.16,11.72-23.14,17.06-21.74,14.55-45.37,26.49-70.46,35.35v-263.77h209.43c-2.7,24.43-8.17,48.02-16.1,70.45Z"/></g></svg>