<?xml version="1.0" encoding="UTF-8"?><svg id="Benchmark" xmlns="http://www.w3.org/2000/svg" viewBox="0 0 2000 2000"><defs><style>.cls-1{fill:#0e7789;}.cls-2{fill:#084349;}.cls-3{fill:none;}</style></defs><path class="cls-3" d="M453.48,1543.33c-4.53-4.58-9.79-6.26-15.78-5.03-5.98,1.23-11.77,4.61-17.36,10.14l-1.07,1.06c-5.52,5.47-8.94,11.21-10.25,17.23-1.31,6.02,.32,11.34,4.89,15.96,4.53,4.58,9.8,6.23,15.81,4.96,6.01-1.28,11.77-4.65,17.29-10.11l1.07-1.06c5.59-5.53,9.04-11.27,10.35-17.23,1.31-5.96-.33-11.26-4.93-15.91Z"/><path class="cls-3" d="M384.61,1462.97c-3.81-5.14-8.57-7.64-14.3-7.5-5.73,.14-11.56,2.42-17.52,6.82l-1.16,.86c-6.76,5-11.33,10.45-13.72,16.34-2.38,5.89-1.66,11.42,2.18,16.6,2.31,3.13,4.99,5.27,8.04,6.42,3.05,1.16,6.3,1.5,9.77,1.04l28.83-21.34c1.46-3.18,2.06-6.38,1.8-9.61-.26-3.22-1.56-6.44-3.93-9.63Z"/><path class="cls-3" d="M729.7,1757.65l-.33,1.05c-1.61,5.15-1.67,9.8-.18,13.95,1.48,4.15,4.87,7.05,10.15,8.69,4.5,1.4,8.76,.83,12.78-1.73,4.03-2.55,7.21-6.43,9.55-11.64l-.03-.37-31.95-9.96Z"/><path class="cls-3" d="M846.01,1761.1c-6.18,5.21-9.99,12.51-11.43,21.91l-2.08,13.63c-1.42,9.31,.04,17.37,4.39,24.19,4.35,6.82,11.08,10.92,20.21,12.32l17.69,2.7,11.88-77.75-17.69-2.7c-9.13-1.39-16.78,.51-22.97,5.72Z"/><path class="cls-3" d="M546.46,1668.45c-2.9,4.55-4.18,9.02-3.83,13.42,.34,4.39,2.85,8.08,7.51,11.05,3.97,2.53,8.23,3.09,12.79,1.69,4.56-1.41,8.65-4.31,12.27-8.72l.07-.36-28.22-17.99-.59,.93Z"/><path class="cls-3" d="M314.91,1364.23c-5.69-.68-11.79,.74-18.31,4.24l-1.27,.68c-7.41,3.99-12.71,8.72-15.91,14.21-3.2,5.49-3.27,11.07-.22,16.74,1.84,3.42,4.19,5.92,7.03,7.51,2.85,1.58,6.03,2.39,9.52,2.43l31.58-16.99c1.9-2.94,2.95-6.03,3.16-9.25,.21-3.23-.63-6.59-2.51-10.09-3.03-5.64-7.39-8.79-13.08-9.47Z"/><path class="cls-3" d="M252.79,777.44l1.41,.53c7.37,2.74,14.03,3.45,19.99,2.13,5.96-1.32,10.07-5.04,12.35-11.17,2.25-6.04,1.55-11.52-2.09-16.43-3.63-4.91-9.14-8.74-16.51-11.48l-1.41-.53c-7.28-2.71-13.93-3.39-19.95-2.04-6.01,1.35-10.15,5.07-12.41,11.15-2.25,6.04-1.53,11.52,2.16,16.42,3.69,4.91,9.17,8.71,16.46,11.43Z"/><path class="cls-3" d="M1250.88,341.91c5.94,2.38,11.31,2.01,16.11-1.11,4.8-3.13,8.58-8.12,11.33-15l.53-1.34c3.13-7.81,4.17-14.84,3.11-21.1-1.06-6.26-4.58-10.59-10.57-12.99-3.61-1.45-7.01-1.86-10.21-1.25-3.2,.61-6.16,2.03-8.86,4.24l-13.35,33.29c.43,3.47,1.6,6.51,3.51,9.13s4.71,4.66,8.4,6.14Z"/><path class="cls-3" d="M1146.04,307.97c4.75,1.16,9.34,.98,13.75-.54,4.41-1.51,7.58-3.71,9.5-6.58l2.85-11.73-14.73-3.58c-5.29-1.29-9.84-.98-13.66,.91-3.82,1.89-6.17,4.64-7.05,8.24-.78,3.2-.39,5.97,1.15,8.33,1.55,2.35,4.27,4,8.18,4.95Z"/><path class="cls-3" d="M1283.77,1734.62l-30.97,12.68,.41,1.02c2.04,4.99,4.96,8.61,8.75,10.87,3.79,2.25,8.24,2.33,13.36,.24,4.36-1.79,7.28-4.94,8.75-9.48,1.48-4.53,1.46-9.55-.05-15.06l-.26-.26Z"/><path class="cls-3" d="M1631.02,612.28c4.49-2.99,7.47-6.57,8.93-10.72,1.46-4.16,.66-8.54-2.41-13.15-2.61-3.92-6.28-6.16-11.02-6.71-4.73-.55-9.65,.45-14.75,3.03l-.21,.3,18.54,27.85,.91-.61Z"/><path class="cls-3" d="M1762.78,1065.93c3.6-2.53,5.5-6.57,5.68-12.1,.16-4.71-1.53-8.66-5.06-11.87-3.53-3.2-8.12-5.24-13.76-6.12l-.35,.12-1.11,33.45,1.1,.04c5.39,.18,9.89-1,13.5-3.53Z"/><path class="cls-3" d="M244.8,1276.3c-5.06,1.86-8.79,4.65-11.17,8.36-2.39,3.7-2.62,8.15-.71,13.34,1.63,4.42,4.68,7.45,9.16,9.09,4.48,1.64,9.5,1.8,15.05,.48l.27-.25-11.58-31.4-1.03,.38Z"/><path class="cls-3" d="M621.71,351.51c3.33,6.72,7.36,11.42,12.11,14.09,4.74,2.68,10,2.58,15.78-.28,3.6-1.79,6.23-4.1,7.88-6.96,1.65-2.86,2.52-6.14,2.61-9.86l-15.37-31.03c-2.92-1.97-6.01-3.16-9.29-3.55-3.28-.39-6.66,.28-10.15,2-5.82,2.88-8.92,7.4-9.31,13.57-.39,6.16,1.31,13.08,5.1,20.74l.64,1.29Z"/><path class="cls-3" d="M1706.75,1168.51c3.93,3.84,9.56,6.4,16.9,7.67l1.42,.25c8.38,1.46,15.48,1.1,21.31-1.06,5.83-2.17,9.29-6.4,10.39-12.71,.71-4.1,.31-7.73-1.2-10.89-1.52-3.17-3.82-5.87-6.91-8.13l-31.69-5.5c-3.9,1.08-7.1,2.84-9.61,5.25-2.51,2.42-4.13,5.74-4.87,9.98-1.09,6.26,.33,11.31,4.26,15.15Z"/><path class="cls-3" d="M1466.33,1610.98l-.9-1.13c-4.64-5.83-9.57-9.57-14.78-11.2-5.21-1.64-10.33-.46-15.33,3.53-3.18,2.53-5.27,5.38-6.27,8.54-.99,3.16-1.14,6.61-.43,10.37l21.26,26.72c3.32,1.39,6.65,1.94,9.99,1.65,3.34-.29,6.54-1.65,9.62-4.1,5.04-4.01,7.11-9.07,6.19-15.18-.91-6.11-4.03-12.5-9.36-19.19Z"/><path class="cls-3" d="M1647.71,1409.5l-.36-.06-17.24,28.68,.94,.56c4.62,2.78,9.13,3.94,13.51,3.48,4.38-.46,8-3.06,10.85-7.8,2.43-4.04,2.88-8.31,1.35-12.83-1.53-4.52-4.54-8.53-9.05-12.04Z"/><path class="cls-3" d="M1706.34,1333.76c2.53-5.98,1.94-11.43-1.78-16.36-3.72-4.93-9.51-9.06-17.38-12.4l-1.33-.56c-6.9-2.93-13.03-3.86-18.37-2.8-5.34,1.06-9.27,4.56-11.79,10.49-1.57,3.7-2.05,7.18-1.44,10.41,.61,3.24,2.09,6.3,4.45,9.19l31.88,13.52c3.5-.41,6.62-1.53,9.36-3.37,2.74-1.84,4.87-4.55,6.39-8.13Z"/><path class="cls-1" d="M1628.13,1014.04c0-361.32-292.91-654.22-654.22-654.22S319.69,652.73,319.69,1014.04s292.91,654.22,654.22,654.22,654.22-292.91,654.22-654.22Zm-688.85,370.58c-23.33-2.1-46.05-6.34-67.94-12.54-23.69-6.69-46.41-15.67-67.93-26.67-15.69-8.02-30.74-17.11-45.05-27.2-7.86-5.53-15.49-11.36-22.89-17.47-18.38-15.18-35.28-32.08-50.46-50.46-6.11-7.4-11.94-15.03-17.47-22.89-10.09-14.31-19.18-29.36-27.2-45.05-11-21.52-19.98-44.25-26.67-67.93-6.2-21.89-10.44-44.59-12.54-67.93h68.28c2.6,23.56,7.88,46.3,15.52,67.93,8.55,24.18,20.06,46.98,34.09,67.93,5.14,7.69,10.63,15.14,16.44,22.32,13.56,16.76,28.86,32.06,45.62,45.62,7.18,5.81,14.63,11.31,22.32,16.45,20.95,14.04,43.75,25.54,67.93,34.08V652.96c21.89-6.2,44.6-10.44,67.94-12.54v744.2Zm406.06-338.13c-2.1,23.33-6.34,46.04-12.54,67.93-6.69,23.68-15.67,46.41-26.67,67.93-8.02,15.69-17.11,30.73-27.19,45.04-5.53,7.87-11.37,15.5-17.48,22.9-15.18,18.38-32.08,35.28-50.46,50.46-7.4,6.11-15.03,11.94-22.89,17.47-14.3,10.08-29.35,19.18-45.04,27.2-21.52,11-44.25,19.98-67.94,26.67-21.89,6.2-44.6,10.44-67.93,12.54V640.42c23.32,2.1,46.04,6.34,67.93,12.54v325.59h270.2c1.01,11.18,1.52,22.51,1.52,33.97s-.51,22.78-1.52,33.97Z"/><path class="cls-1" d="M1075.14,1300.81c24.19-8.54,46.98-20.05,67.94-34.08,7.69-5.15,15.14-10.64,22.31-16.45,16.76-13.55,32.05-28.84,45.62-45.6,5.81-7.18,11.31-14.64,16.45-22.34,14.04-20.95,25.54-43.75,34.09-67.93,7.65-21.63,12.92-44.37,15.52-67.93h-201.93v254.32Z"/><path class="cls-2" d="M871.35,1300.81c-24.18-8.54-46.98-20.05-67.93-34.08-7.69-5.14-15.14-10.64-22.32-16.45-16.76-13.56-32.06-28.86-45.62-45.62-5.81-7.18-11.3-14.63-16.44-22.32-14.04-20.95-25.54-43.75-34.09-67.93-7.65-21.63-12.92-44.37-15.52-67.93h-68.28c2.1,23.33,6.34,46.04,12.54,67.93,6.69,23.68,15.67,46.41,26.67,67.93,8.02,15.69,17.11,30.74,27.2,45.05,5.53,7.86,11.36,15.49,17.47,22.89,15.18,18.38,32.08,35.28,50.46,50.46,7.4,6.11,15.03,11.94,22.89,17.47,14.31,10.09,29.36,19.18,45.05,27.2,21.52,11,44.24,19.98,67.93,26.67,21.89,6.2,44.6,10.44,67.94,12.54V640.42c-23.33,2.1-46.05,6.34-67.94,12.54v647.85Z"/><path class="cls-2" d="M1075.14,978.55v-325.59c-21.89-6.2-44.6-10.44-67.93-12.54v744.2c23.32-2.1,46.04-6.34,67.93-12.54,23.69-6.69,46.42-15.67,67.94-26.67,15.69-8.02,30.74-17.12,45.04-27.2,7.86-5.53,15.49-11.36,22.89-17.47,18.38-15.18,35.28-32.08,50.46-50.46,6.11-7.4,11.95-15.03,17.48-22.9,10.08-14.31,19.17-29.35,27.19-45.04,11-21.52,19.98-44.25,26.67-67.93,6.2-21.89,10.44-44.59,12.54-67.93,1.01-11.18,1.52-22.51,1.52-33.97s-.51-22.78-1.52-33.97h-270.2Zm186.41,135.86c-8.55,24.18-20.06,46.98-34.09,67.93-5.14,7.7-10.63,15.16-16.45,22.34-13.57,16.76-28.86,32.05-45.62,45.6-7.17,5.81-14.62,11.3-22.31,16.45-20.96,14.03-43.75,25.54-67.94,34.08v-254.32h201.93c-2.6,23.56-7.88,46.3-15.52,67.93Z"/><path class="cls-2" d="M837.69,1752.02c-9.05,6.69-14.53,16.34-16.46,28.95l-2.06,13.49c-1.92,12.56,.44,23.41,7.07,32.54,6.63,9.13,16.38,14.68,29.26,16.65l31.05,4.74,15.08-98.7-31.05-4.75c-12.88-1.97-23.84,.39-32.89,7.08Zm37.1,83.81l-17.69-2.7c-9.13-1.4-15.86-5.5-20.21-12.32-4.35-6.82-5.81-14.88-4.39-24.19l2.08-13.63c1.44-9.4,5.25-16.7,11.43-21.91,6.19-5.21,13.84-7.11,22.97-5.72l17.69,2.7-11.88,77.75Z"/><polygon class="cls-2" points="707.29 1813.65 707.3 1814.09 722.36 1818.78 739.9 1805.14 730.21 1802.12 707.29 1813.65"/><path class="cls-2" d="M757.06,1717.33c-5.85-1.82-11.11-2.54-15.78-2.15-4.67,.39-8.65,1.41-11.94,3.07l2.43,9.95c3.04-1.45,6.4-2.28,10.08-2.5,3.68-.22,7.71,.35,12.07,1.71,6.46,2.01,10.57,5.73,12.33,11.14,1.76,5.41,1.53,11.67-.68,18.79l-.3,.26-45.3-14.12-2.12,6.81c-3.05,9.78-3.12,18.35-.22,25.72,2.9,7.37,9.08,12.53,18.56,15.48,8.47,2.64,16.67,1.54,24.62-3.28,7.95-4.83,13.5-12.33,16.67-22.49l.9-2.88c3.3-10.6,3.12-20.05-.54-28.33-3.67-8.28-10.59-14-20.76-17.17Zm-4.94,62.28c-4.03,2.55-8.29,3.13-12.78,1.73-5.28-1.65-8.66-4.54-10.15-8.69-1.48-4.15-1.43-8.8,.18-13.95l.33-1.05,31.95,9.96,.03,.37c-2.34,5.21-5.52,9.09-9.55,11.64Z"/><polygon class="cls-2" points="609.46 1738.59 621.96 1744.4 659.51 1704.16 662.88 1699.98 663.26 1700.15 662.12 1705.37 655.98 1760.22 668.54 1766.06 674.76 1687.13 665.49 1682.82 609.46 1738.59"/><path class="cls-2" d="M584.04,1635.81c-5.16-3.29-10.05-5.36-14.66-6.22-4.61-.85-8.72-.91-12.33-.18l-.27,10.24c3.31-.6,6.77-.52,10.38,.24s7.34,2.36,11.2,4.82c5.71,3.64,8.7,8.3,8.98,13.98,.28,5.68-1.58,11.66-5.59,17.95l-.36,.18-40.01-25.52-3.83,6.01c-5.51,8.63-7.83,16.89-6.96,24.76,.86,7.87,5.48,14.47,13.84,19.8,7.48,4.77,15.68,5.87,24.62,3.3,8.93-2.57,16.26-8.35,21.99-17.33l1.62-2.54c5.97-9.37,8.27-18.52,6.91-27.48-1.37-8.95-6.54-16.29-15.52-22.02Zm-8.83,50.08c-3.62,4.41-7.72,7.32-12.27,8.72-4.56,1.41-8.82,.84-12.79-1.69-4.66-2.97-7.17-6.66-7.51-11.05-.34-4.39,.94-8.87,3.83-13.42l.59-.93,28.22,17.99-.07,.36Z"/><rect class="cls-2" x="434.55" y="1627.41" width="106.98" height="13.51" transform="translate(-1091.24 990.31) rotate(-51.19)"/><path class="cls-2" d="M457.57,1586.07c7.83-7.75,12.16-16.23,12.99-25.44,.82-9.21-2.36-17.45-9.57-24.73-7.2-7.28-15.4-10.56-24.58-9.83-9.18,.73-17.71,4.98-25.57,12.76l-1.07,1.06c-7.83,7.75-12.17,16.24-13.01,25.46-.84,9.23,2.36,17.49,9.59,24.8,7.17,7.25,15.37,10.48,24.61,9.71,9.23-.77,17.75-5.02,25.55-12.74l1.07-1.06Zm-10.57-8.54c-5.52,5.46-11.29,8.84-17.29,10.11-6,1.28-11.27-.37-15.81-4.96-4.56-4.62-6.19-9.93-4.89-15.96,1.31-6.02,4.73-11.77,10.25-17.23l1.07-1.06c5.59-5.53,11.38-8.91,17.36-10.14,5.99-1.23,11.25,.45,15.78,5.03,4.6,4.65,6.24,9.95,4.93,15.91-1.31,5.96-4.76,11.7-10.35,17.23l-1.07,1.06Z"/><path class="cls-2" d="M424.82,1454.02l-29.16,21.58c1.02-3.77,1.12-7.5,.3-11.18-.82-3.68-2.59-7.36-5.31-11.04-5.36-7.24-12.19-10.97-20.51-11.18s-16.78,2.86-25.38,9.23l-1.16,.86c-9.63,7.12-15.86,14.91-18.68,23.34-2.83,8.43-1.51,16.34,3.96,23.73,2.86,3.86,6.11,6.68,9.76,8.47,3.66,1.79,7.64,2.59,11.94,2.42l-6.45,7.42,6.16,8.32,82.57-61.11-8.04-10.86Zm-38.09,28.19l-28.83,21.34c-3.47,.46-6.72,.11-9.77-1.04-3.05-1.16-5.73-3.3-8.04-6.42-3.83-5.18-4.56-10.71-2.18-16.6,2.38-5.88,6.95-11.33,13.72-16.34l1.16-.86c5.95-4.41,11.79-6.68,17.52-6.82,5.73-.14,10.49,2.36,14.3,7.5,2.37,3.2,3.68,6.41,3.93,9.63,.25,3.22-.35,6.43-1.8,9.61Z"/><path class="cls-2" d="M369.07,1370.6l-31.95,17.19c1.55-3.58,2.18-7.26,1.89-11.02-.29-3.77-1.51-7.66-3.68-11.69-4.27-7.93-10.5-12.6-18.71-14-8.2-1.4-17.01,.43-26.44,5.5l-1.27,.68c-10.55,5.67-17.82,12.48-21.83,20.43-4.01,7.94-3.83,15.96,.52,24.05,2.27,4.23,5.09,7.49,8.45,9.78,3.36,2.29,7.19,3.66,11.47,4.1l-7.45,6.42,4.91,9.12,90.47-48.67-6.4-11.9Zm-38.57,13.2c-.21,3.23-1.26,6.31-3.16,9.25l-31.58,16.99c-3.5-.04-6.67-.85-9.52-2.43-2.85-1.58-5.19-4.08-7.03-7.51-3.05-5.68-2.98-11.26,.22-16.74,3.2-5.48,8.51-10.22,15.91-14.21l1.27-.68c6.52-3.51,12.63-4.93,18.31-4.24,5.69,.68,10.05,3.83,13.08,9.47,1.88,3.5,2.72,6.87,2.51,10.09Z"/><path class="cls-2" d="M271.38,1317.66c10.42-3.84,17.8-9.74,22.12-17.7,4.33-7.95,4.65-16.93,.96-26.92-2.12-5.75-4.76-10.36-7.91-13.82-3.15-3.47-6.39-6-9.71-7.6l-6.41,7.99c3,1.52,5.71,3.68,8.12,6.47,2.42,2.79,4.41,6.33,6,10.62,2.34,6.35,1.9,11.87-1.31,16.56-3.22,4.69-8.32,8.33-15.31,10.91l-.39-.08-16.42-44.52-6.69,2.47c-9.61,3.54-16.45,8.71-20.53,15.5-4.07,6.79-4.39,14.84-.96,24.14,3.07,8.32,8.94,14.16,17.61,17.52,8.67,3.36,18,3.19,27.99-.49l2.83-1.04Zm-14.25-10.09c-5.56,1.32-10.57,1.16-15.05-.48-4.48-1.64-7.53-4.67-9.16-9.09-1.91-5.19-1.68-9.64,.71-13.34,2.38-3.71,6.11-6.49,11.17-8.36l1.03-.38,11.58,31.4-.27,.25Z"/><path class="cls-2" d="M264.94,1204.18c4.1-5.51,5.29-12.23,3.58-20.13-1.01-4.69-2.96-8.6-5.83-11.72-2.87-3.12-6.5-5.4-10.88-6.84l10.54-3.19-2.56-11.87-72.53,15.67,2.85,13.2,52.28-11.3c3.82,.81,7.01,2.54,9.57,5.19,2.56,2.65,4.35,6.32,5.36,11.01,1.04,4.83,.36,8.69-2.06,11.6-2.41,2.9-7.48,5.19-15.21,6.86l-42.9,9.27,2.85,13.2,42.77-9.24c10.68-2.31,18.06-6.22,22.16-11.73Z"/><path class="cls-2" d="M252.77,1092.5l-52.8,4.73c-3.17-1.05-5.71-2.71-7.61-5-1.9-2.29-3.01-5.2-3.33-8.75l-.21-6.94-12.67-.72c-.13,.61-.23,1.38-.31,2.3-.08,.93-.07,1.89,.02,2.89,.36,4.01,1.75,7.45,4.16,10.33,2.42,2.88,5.63,5.2,9.64,6.95l-10.68,2.27,1.08,12.02,73.9-6.62-1.21-13.46Z"/><polygon class="cls-2" points="252.92 955.49 209.04 950.48 213.83 908.64 203.26 907.44 198.48 949.27 164.28 945.36 169.86 896.58 159.3 895.37 152.19 957.57 251.38 968.92 252.92 955.49"/><path class="cls-2" d="M269.16,857.78l-51.57-12.27c-2.67-2-4.55-4.39-5.63-7.16-1.08-2.77-1.21-5.89-.38-9.36l2-6.64-11.78-4.71c-.32,.54-.66,1.23-1.02,2.08-.37,.85-.67,1.77-.9,2.75-.93,3.91-.71,7.62,.67,11.12,1.38,3.5,3.69,6.72,6.94,9.65l-10.84-1.24-2.8,11.74,72.18,17.17,3.13-13.14Z"/><path class="cls-2" d="M248.09,790.1l1.41,.53c10.33,3.84,19.84,4.19,28.54,1.06,8.7-3.13,14.83-9.5,18.4-19.09,3.57-9.6,3.09-18.41-1.44-26.43-4.53-8.02-11.98-13.96-22.35-17.82l-1.41-.53c-10.33-3.84-19.85-4.2-28.57-1.08-8.72,3.12-14.87,9.5-18.46,19.14-3.55,9.56-3.03,18.36,1.56,26.41,4.59,8.05,12.03,13.98,22.31,17.81Zm-13.91-40.51c2.26-6.08,6.4-9.8,12.41-11.15,6.02-1.35,12.66-.67,19.95,2.04l1.41,.53c7.37,2.74,12.88,6.57,16.51,11.48,3.64,4.91,4.33,10.39,2.09,16.43-2.28,6.13-6.4,9.85-12.35,11.17-5.95,1.32-12.61,.61-19.99-2.13l-1.41-.53c-7.28-2.71-12.77-6.52-16.46-11.43-3.69-4.91-4.41-10.38-2.16-16.42Z"/><path class="cls-2" d="M330.48,691.71l-48.32-26.42c-1.84-2.93-2.79-6.07-2.86-9.42-.07-3.35,.89-6.85,2.89-10.5,2.54-4.65,5.64-7.45,9.28-8.41,3.64-.95,8.34,.14,14.07,3.28l40.85,22.34,6.48-11.85-41.09-22.47c-8.58-4.69-15.98-6.24-22.2-4.64-6.22,1.6-11.25,5.92-15.08,12.93-2.28,4.17-3.36,8.41-3.24,12.73,.12,4.31,1.31,8.49,3.58,12.54l-10.15-4.45-5.79,10.59,65.1,35.6,6.48-11.85Z"/><path class="cls-2" d="M313.51,575.35l8.14,5.84,6.88-9.58,36.61,26.26c5.76,4.13,10.93,5.84,15.51,5.14,4.59-.7,8.48-3.29,11.68-7.74,1.12-1.56,2.04-3.29,2.76-5.19,.72-1.9,1.04-3.51,.95-4.8l-8.6-3.89c-.19,.65-.48,1.43-.87,2.33-.39,.9-.82,1.67-1.27,2.3-1.39,1.93-3.07,3.07-5.07,3.41-1.99,.35-4.4-.5-7.22-2.52l-36.61-26.27,8.2-11.42-8.14-5.84-8.19,11.42-14.54-10.43-7.88,10.98,14.54,10.43-6.88,9.58Z"/><polygon class="cls-2" points="509.23 467.59 502.07 459.83 466.79 492.38 442.56 466.12 472.7 438.31 465.49 430.5 435.35 458.31 413.45 434.57 448.18 402.53 440.97 394.72 396.32 435.92 464.02 509.3 509.23 467.59"/><path class="cls-2" d="M550.95,435.85l-31.26-45.33c-.32-3.45,.24-6.68,1.68-9.7,1.44-3.02,3.88-5.71,7.3-8.08,4.37-3.01,8.39-4.12,12.08-3.33s7.38,3.88,11.09,9.26l26.43,38.33,11.12-7.67-26.59-38.56c-5.55-8.05-11.47-12.77-17.74-14.13-6.27-1.37-12.7,.22-19.29,4.76-3.91,2.7-6.79,6-8.62,9.9-1.84,3.91-2.65,8.18-2.45,12.81l-7.06-8.54-9.94,6.85,42.12,61.09,11.12-7.67Z"/><path class="cls-2" d="M609.6,357.51c4.75,9.59,10.87,16.18,18.37,19.79,7.5,3.61,15.31,3.4,23.42-.62,4.22-2.09,7.52-4.75,9.91-7.97,2.38-3.22,3.87-6.97,4.46-11.24l6.01,7.51,9.28-4.6-47.48-95.86-12.11,6,18.11,36.56c-3.49-1.69-7.09-2.51-10.81-2.45-3.72,.06-7.53,1.05-11.42,2.98-8.23,4.08-13.01,10.53-14.33,19.34-1.32,8.82,.67,18.57,5.96,29.26l.64,1.29Zm6.36-28.02c.39-6.16,3.49-10.68,9.31-13.57,3.48-1.72,6.86-2.39,10.15-2,3.28,.39,6.38,1.58,9.29,3.55l15.37,31.03c-.1,3.72-.97,7.01-2.61,9.86-1.65,2.86-4.27,5.18-7.88,6.96-5.78,2.86-11.04,2.95-15.78,.28-4.74-2.67-8.78-7.37-12.11-14.09l-.64-1.29c-3.8-7.66-5.5-14.57-5.1-20.74Z"/><rect class="cls-2" x="771.88" y="273.24" width="40.46" height="10.56" transform="translate(-43.65 197.83) rotate(-13.86)"/><path class="cls-2" d="M937.31,288.88c7.67,7.51,17.26,11.18,28.78,10.99,9.37-.15,16.97-1.83,22.79-5.03,5.82-3.2,9.9-6.68,12.21-10.42l-.59-36.48-36.13,.59,.17,10.56,22.63-.37,.37,22.49c-1.66,2.13-4.2,3.99-7.63,5.58-3.43,1.59-8.09,2.43-13.98,2.52-7.68,.12-14.03-2.64-19.06-8.3-5.03-5.66-7.62-12.92-7.76-21.79l-.33-20.7c-.14-8.78,2.07-16.06,6.64-21.85,4.57-5.79,10.67-8.75,18.31-8.87,7.22-.12,12.83,1.81,16.83,5.8s6.05,9.01,6.15,15.09l12.96-.21,.13-.41c.03-9.15-3.22-16.63-9.76-22.44-6.54-5.81-15.37-8.63-26.48-8.45-11.47,.18-20.78,4.16-27.93,11.9-7.14,7.75-10.62,17.68-10.42,29.8l.33,20.57c.2,12.11,4.13,21.93,11.79,29.44Z"/><path class="cls-2" d="M1067.12,250.51c1.67-2.89,3.82-5.03,6.45-6.43,2.63-1.4,5.71-1.89,9.25-1.47l6.83,1.21,3.3-12.25c-.57-.25-1.3-.51-2.19-.77-.89-.27-1.83-.46-2.83-.57-3.99-.47-7.65,.19-10.97,1.96-3.31,1.78-6.24,4.45-8.77,8.02l-.03-10.91-11.99-1.4-8.62,73.7,13.42,1.57,6.16-52.65Z"/><path class="cls-2" d="M1141.44,318.49c4.53,1.1,9.05,.97,13.54-.41,4.5-1.38,8.39-3.5,11.68-6.37-.37,1.7-.63,3.41-.79,5.14-.16,1.73-.28,3.73-.37,6.01l13.53,3.29c-.15-2.48-.07-4.96,.25-7.42,.32-2.46,.79-4.98,1.42-7.56l8.44-34.72c1.9-7.82,.87-14.41-3.1-19.77-3.97-5.36-10.04-9.04-18.21-11.02-8.26-2.01-15.54-1.47-21.81,1.62-6.28,3.09-9.9,7.29-10.86,12.6l.03,.43,12.5,2.9c.72-2.97,2.65-5.21,5.79-6.71,3.14-1.5,6.84-1.73,11.1-.69,4.71,1.15,8.05,3.26,10.03,6.36,1.98,3.09,2.46,6.75,1.43,10.97l-1.73,7.13-14.26-3.47c-9.55-2.32-17.58-2.22-24.1,.31-6.52,2.53-10.62,7.24-12.29,14.13-1.64,6.75-.97,12.53,2.04,17.33,3,4.8,8.25,8.11,15.76,9.93Zm-4.73-23.8c.87-3.6,3.22-6.34,7.05-8.24,3.82-1.89,8.38-2.2,13.66-.91l14.73,3.58-2.85,11.73c-1.92,2.88-5.09,5.07-9.5,6.58-4.41,1.52-9,1.69-13.75,.54-3.91-.95-6.64-2.6-8.18-4.95-1.54-2.35-1.93-5.13-1.15-8.33Z"/><path class="cls-2" d="M1234.84,336.95c1.11,3.75,2.98,6.97,5.61,9.68s6.07,4.91,10.32,6.61c8.36,3.35,16.14,2.94,23.33-1.25s12.78-11.24,16.76-21.17l.54-1.33c4.46-11.12,5.68-21.01,3.66-29.67-2.02-8.67-7.29-14.71-15.82-18.13-4.45-1.79-8.71-2.48-12.76-2.09-4.05,.39-7.86,1.8-11.44,4.2l1.6-9.7-9.61-3.85-38.23,95.35,12.54,5.03,13.5-33.67Zm17.48-43.6c2.71-2.21,5.67-3.63,8.86-4.24,3.2-.61,6.61-.2,10.21,1.25,5.98,2.4,9.5,6.73,10.57,12.99,1.06,6.26,.02,13.3-3.11,21.1l-.53,1.34c-2.76,6.88-6.53,11.87-11.33,15-4.8,3.12-10.17,3.49-16.11,1.11-3.69-1.48-6.49-3.53-8.4-6.14s-3.08-5.65-3.51-9.13l13.35-33.29Z"/><path class="cls-2" d="M1354.74,339.63c3-1.54,6.19-2.24,9.55-2.11,3.36,.12,6.78,1.2,10.26,3.22,4.51,2.61,7.16,5.85,7.97,9.7s-.33,8.43-3.4,13.72l-23.4,40.34,11.69,6.78,23.33-40.22c4.95-8.54,6.72-15.98,5.29-22.3-1.43-6.32-5.57-11.47-12.41-15.44-3.91-2.27-7.98-3.48-12.2-3.63-4.22-.15-8.33,.68-12.34,2.48l21.43-36.96-11.68-6.78-53.68,92.53,11.69,6.78,27.91-48.11Z"/><rect class="cls-2" x="1463.28" y="354.63" width="13.78" height="13.51" transform="translate(302.71 1325.26) rotate(-53.35)"/><rect class="cls-2" x="1395.47" y="405.17" width="74.2" height="13.51" transform="translate(246.89 1315.31) rotate(-53.35)"/><path class="cls-2" d="M1493.68,469.2c3.66,5.33,5.68,9.46,6.06,12.37,.38,2.92-.44,5.46-2.46,7.64-2.15,2.31-4.91,3.28-8.29,2.92-3.38-.36-6.82-2.18-10.34-5.44-3.28-3.05-5.39-6.52-6.32-10.42-.93-3.9,.15-7.68,3.25-11.35l-9.44-8.78-.38,.21c-4.56,4.5-6.48,10.36-5.76,17.58,.72,7.22,4.54,14.05,11.47,20.49,6.3,5.85,12.81,9.07,19.54,9.65s12.34-1.54,16.82-6.36c3.86-4.15,5.26-9.12,4.21-14.91-1.05-5.79-4.26-12.48-9.61-20.08-3.75-5.3-5.83-9.23-6.23-11.78-.4-2.56,.39-4.91,2.39-7.05,2.02-2.18,4.63-3.25,7.81-3.22,3.19,.03,6.52,1.66,10.01,4.9,3.15,2.93,4.86,6.3,5.15,10.12,.28,3.82-.66,6.91-2.84,9.25l9.44,8.78,.38-.21c4.31-4.3,6.11-9.9,5.4-16.79-.71-6.9-4.14-13.21-10.3-18.94-5.99-5.57-12.34-8.53-19.03-8.89-6.69-.35-12.09,1.68-16.2,6.1-3.86,4.15-5.22,9.06-4.09,14.73,1.13,5.67,4.25,12.16,9.37,19.48Z"/><path class="cls-2" d="M1536,562.74c1.24,1.46,2.7,2.77,4.38,3.93,1.67,1.16,3.15,1.85,4.43,2.08l5.85-7.41c-.59-.34-1.27-.81-2.05-1.41s-1.42-1.19-1.92-1.79c-1.54-1.81-2.24-3.72-2.09-5.74,.14-2.01,1.54-4.15,4.19-6.4l34.32-29.19,9.11,10.71,7.63-6.49-9.11-10.71,13.63-11.6-8.75-10.29-13.63,11.6-7.64-8.98-7.63,6.49,7.64,8.99-34.32,29.19c-5.4,4.59-8.31,9.19-8.73,13.82-.42,4.62,1.15,9.02,4.7,13.2Z"/><path class="cls-2" d="M1595.57,578.22c-9.25,6.16-15.05,13.61-17.41,22.35-2.36,8.74-.6,17.55,5.31,26.41,3.39,5.1,7.03,8.97,10.9,11.61,3.87,2.64,7.61,4.35,11.21,5.14l4.38-9.26c-3.27-.79-6.4-2.26-9.4-4.41-3-2.15-5.77-5.13-8.3-8.93-3.75-5.63-4.61-11.1-2.57-16.42,2.04-5.31,6.16-10.03,12.36-14.16l.4-.02,26.3,39.5,5.94-3.95c8.52-5.67,13.98-12.29,16.37-19.84,2.39-7.55,.83-15.45-4.66-23.71-4.92-7.38-11.98-11.7-21.19-12.96-9.21-1.25-18.25,1.07-27.12,6.97l-2.51,1.67Zm16.2,6.51c5.1-2.57,10.01-3.58,14.75-3.03,4.74,.55,8.41,2.79,11.02,6.71,3.07,4.6,3.87,8.99,2.41,13.15-1.46,4.16-4.44,7.73-8.93,10.72l-.91,.61-18.54-27.85,.21-.3Z"/><rect class="cls-2" x="1687.87" y="724.02" width="10.56" height="40.46" transform="translate(-154.9 670.81) rotate(-21.45)"/><polygon class="cls-2" points="1695.13 909.38 1766.41 920.52 1775.51 920.79 1775.56 921.2 1766.85 923.85 1700.73 952.56 1702.29 964.53 1804.41 975.61 1802.52 961.06 1736.01 955.31 1722.51 955.19 1722.46 954.79 1735.42 950.75 1797.79 924.68 1796.09 911.55 1729.14 902.4 1715.79 901.78 1715.8 901.37 1728.57 897.98 1791.37 875.17 1789.49 860.68 1693.57 897.41 1695.13 909.38"/><path class="cls-2" d="M1744.24,1082.81c10.24,.34,18.52-1.87,24.85-6.62,6.33-4.75,9.67-12.09,9.99-22,.3-8.86-2.94-16.48-9.71-22.86-6.76-6.38-15.47-9.74-26.11-10.09l-3.01-.1c-11.1-.37-20.16,2.32-27.17,8.05-7.01,5.74-10.68,13.93-11.04,24.58-.2,6.12,.5,11.38,2.12,15.78,1.62,4.4,3.66,7.97,6.13,10.7l8.95-4.99c-2.21-2.54-3.9-5.56-5.09-9.06-1.19-3.49-1.71-7.52-1.56-12.09,.22-6.76,2.71-11.71,7.46-14.85,4.75-3.13,10.84-4.58,18.29-4.33l.33,.22-1.57,47.43,7.13,.24Zm5.05-46.83l.35-.12c5.64,.87,10.23,2.91,13.76,6.12,3.53,3.2,5.22,7.16,5.06,11.87-.18,5.53-2.08,9.56-5.68,12.1-3.61,2.53-8.11,3.71-13.5,3.53l-1.1-.04,1.11-33.45Z"/><path class="cls-2" d="M1696.64,1131.4l9.55,3.89c-4.14,1.69-7.49,4.16-10.02,7.41-2.53,3.25-4.23,7.3-5.07,12.17-1.54,8.87,.48,16.4,6.06,22.59,5.58,6.19,13.64,10.2,24.18,12.03l1.42,.25c11.76,2.04,21.68,1.17,29.76-2.62,8.08-3.8,12.91-10.19,14.47-19.2,.79-4.55,.62-8.67-.5-12.37-1.12-3.7-3.1-6.98-5.95-9.84l40.94,7.12,2.31-13.31-105.4-18.31-1.77,10.2Zm20.34,6.74l31.69,5.5c3.09,2.25,5.39,4.96,6.91,8.13,1.52,3.16,1.92,6.79,1.2,10.89-1.1,6.31-4.56,10.54-10.39,12.71-5.83,2.17-12.93,2.52-21.31,1.06l-1.42-.25c-7.34-1.27-12.98-3.83-16.9-7.67-3.93-3.84-5.35-8.89-4.26-15.15,.74-4.24,2.36-7.56,4.87-9.98,2.51-2.42,5.71-4.17,9.61-5.25Z"/><path class="cls-2" d="M1711.06,1344.59c2.78-2.47,5.02-5.7,6.72-9.7,3.59-8.46,3.01-16.46-1.73-24.01-4.75-7.55-12.61-13.65-23.59-18.31l-1.33-.56c-9.85-4.18-18.79-5.19-26.83-3.04-8.04,2.15-13.83,7.39-17.36,15.73-1.84,4.33-2.61,8.5-2.32,12.5,.29,4,1.6,7.81,3.94,11.43l-9.45-1.77-4.04,9.53,98.49,41.77,5.27-12.44-37.56-15.93c3.75-.99,7.01-2.73,9.8-5.19Zm-20.47,.67l-31.88-13.52c-2.35-2.88-3.83-5.95-4.45-9.19-.61-3.24-.13-6.71,1.44-10.41,2.52-5.93,6.45-9.43,11.79-10.49,5.34-1.06,11.46-.13,18.37,2.8l1.33,.56c7.87,3.34,13.67,7.47,17.38,12.4,3.72,4.93,4.31,10.38,1.78,16.36-1.52,3.58-3.64,6.28-6.39,8.13-2.74,1.84-5.86,2.96-9.36,3.37Z"/><path class="cls-2" d="M1649.25,1393.62l-2.59-1.56c-9.52-5.72-18.74-7.78-27.65-6.17-8.91,1.6-16.11,6.97-21.6,16.1-3.16,5.25-5.1,10.19-5.82,14.82-.73,4.63-.68,8.74,.15,12.33h10.24c-.69-3.3-.7-6.76-.04-10.39,.66-3.63,2.17-7.4,4.52-11.32,3.49-5.8,8.06-8.92,13.74-9.35,5.67-.43,11.7,1.27,18.09,5.11l.19,.35-24.44,40.67,6.11,3.67c8.78,5.28,17.09,7.38,24.93,6.3,7.85-1.07,14.32-5.86,19.43-14.36,4.57-7.6,5.45-15.84,2.64-24.7-2.81-8.86-8.78-16.04-17.91-21.52Zm6.16,40.74c-2.85,4.74-6.47,7.34-10.85,7.8-4.38,.46-8.89-.7-13.51-3.48l-.94-.56,17.24-28.68,.36,.06c4.5,3.51,7.52,7.52,9.05,12.04,1.52,4.52,1.08,8.79-1.35,12.83Z"/><path class="cls-2" d="M1603.28,1492.43c-4.42-3.55-9.42-4.55-14.99-3.01-5.57,1.54-11.82,5.13-18.75,10.77-5.05,4.04-9.02,6.35-11.89,6.94-2.88,.59-5.48-.04-7.79-1.9-2.46-1.97-3.63-4.66-3.52-8.05,.11-3.4,1.67-6.97,4.68-10.71,2.8-3.5,6.11-5.85,9.93-7.07,3.82-1.22,7.67-.41,11.56,2.41l8.07-10.06-.24-.36c-4.82-4.22-10.81-5.71-17.95-4.47-7.15,1.24-13.68,5.55-19.61,12.94-5.38,6.7-8.11,13.44-8.2,20.19-.09,6.76,2.44,12.2,7.57,16.32,4.42,3.55,9.48,4.58,15.17,3.11,5.69-1.47,12.13-5.15,19.32-11.05,5.01-4.13,8.78-6.49,11.3-7.07,2.52-.59,4.92,.04,7.2,1.86,2.32,1.86,3.58,4.38,3.78,7.56,.2,3.18-1.18,6.62-4.16,10.34-2.69,3.35-5.93,5.31-9.72,5.87-3.79,.56-6.93-.16-9.43-2.16l-8.06,10.06,.24,.37c4.6,3.98,10.31,5.37,17.14,4.16,6.83-1.21,12.87-5.09,18.14-11.65,5.12-6.39,7.61-12.93,7.48-19.63-.13-6.7-2.55-11.94-7.26-15.71Z"/><rect class="cls-2" x="1555.19" y="1603.41" width="13.51" height="13.78" transform="translate(-681.18 1576.44) rotate(-45.01)"/><rect class="cls-2" x="1510.64" y="1528.68" width="13.51" height="74.2" transform="translate(-662.74 1531.92) rotate(-45.01)"/><path class="cls-2" d="M1476.91,1602.57l-.9-1.13c-6.66-8.37-14.03-13.54-22.1-15.5-8.07-1.96-15.65-.12-22.74,5.51-3.47,2.76-6.03,5.82-7.68,9.18-1.65,3.36-2.46,7.01-2.42,10.95l-5.25-6.6c-3.81-4.79-5.48-9.29-5-13.5,.48-4.21,3.3-8.36,8.44-12.46,2.79-2.22,5.89-4.14,9.3-5.77,3.41-1.63,6.56-2.72,9.45-3.27l-4.92-9.49c-3.52,.64-7.21,1.86-11.06,3.67-3.85,1.81-7.17,3.82-9.96,6.04-8.16,6.49-12.81,13.45-13.97,20.88-1.16,7.43,1.23,14.87,7.15,22.31l46.45,58.39,8.42-6.7-4.73-8.59c4.12,1.28,8.16,1.56,12.13,.82,3.97-.74,7.8-2.57,11.48-5.5,7.16-5.69,10.45-12.99,9.88-21.89-.56-8.9-4.56-18.02-11.99-27.35Zm-7.41,42.79c-3.08,2.45-6.28,3.81-9.62,4.1-3.34,.29-6.67-.26-9.99-1.65l-21.26-26.72c-.71-3.76-.57-7.22,.43-10.37,.99-3.16,3.08-6,6.27-8.54,5.01-3.99,10.12-5.16,15.33-3.53,5.21,1.64,10.14,5.37,14.78,11.2l.9,1.13c5.32,6.69,8.44,13.09,9.36,19.19,.92,6.11-1.15,11.17-6.19,15.18Z"/><path class="cls-2" d="M1357.41,1645.46l27.78,47.55c.06,3.46-.74,6.64-2.41,9.54-1.66,2.91-4.29,5.41-7.89,7.51-4.58,2.67-8.67,3.48-12.29,2.41-3.61-1.06-7.07-4.42-10.37-10.07l-23.48-40.21-11.66,6.81,23.62,40.44c4.93,8.45,10.48,13.59,16.63,15.42,6.15,1.83,12.68,.73,19.59-3.3,4.1-2.4,7.22-5.48,9.34-9.23,2.12-3.76,3.26-7.95,3.41-12.59l6.4,9.05,10.42-6.09-37.42-64.07-11.67,6.82Z"/><path class="cls-2" d="M1293.61,1720.29c-4.21-10.28-10.37-17.44-18.47-21.49-8.1-4.04-17.08-4.04-26.94,0-5.67,2.32-10.18,5.12-13.53,8.39-3.35,3.27-5.77,6.6-7.26,9.97l8.21,6.12c1.42-3.05,3.48-5.83,6.18-8.35,2.7-2.51,6.17-4.64,10.4-6.37,6.26-2.57,11.79-2.32,16.6,.72,4.81,3.05,8.62,8.02,11.44,14.91l-.06,.39-43.92,17.98,2.71,6.6c3.88,9.48,9.29,16.13,16.21,19.96,6.93,3.83,14.98,3.87,24.16,.11,8.21-3.36,13.84-9.43,16.88-18.21,3.05-8.78,2.55-18.1-1.48-27.96l-1.14-2.79Zm-9.53,29.65c-1.48,4.53-4.4,7.69-8.75,9.48-5.12,2.09-9.57,2.02-13.36-.24-3.79-2.25-6.7-5.88-8.75-10.87l-.41-1.02,30.97-12.68,.26,.26c1.51,5.51,1.53,10.53,.05,15.06Z"/><path class="cls-2" d="M1171.55,1726.29l14.07,51.11c-.47,3.3-1.65,6.1-3.56,8.38-1.91,2.28-4.58,3.89-8.02,4.84l-6.79,1.44,1.54,12.59c.62,.02,1.39-.02,2.32-.1,.93-.09,1.87-.27,2.84-.53,3.88-1.07,7.02-3.05,9.42-5.94,2.4-2.89,4.11-6.47,5.12-10.73l4.13,10.1,11.64-3.2-19.7-71.53-13.02,3.58Z"/><rect class="cls-2" x="1012.78" y="1787.52" width="40.46" height="10.56" transform="translate(-126.49 79.09) rotate(-4.13)"/></svg>